<svg xmlns="http://www.w3.org/2000/svg" width="120" height="32" viewBox="0 0 120 32">
    <g fill="#FFF" fill-rule="evenodd">
        <path d="M8.59 6.484H2.426C.678 6.484 0 5.734 0 4.232v-2.26h22.168v2.277c-.014 1.454-.702 2.235-2.102 2.235h-6.488v20.93c0 1.967-.72 2.584-2.494 2.584H8.59V6.484zM63.124 26.198c3.484 0 5.582-2.732 5.582-5.7 0-2.97-2.098-5.7-5.582-5.7-3.483 0-5.58 2.73-5.58 5.7 0 2.968 2.097 5.7 5.58 5.7zm5.662.95h-.08c-1.385 2.296-3.88 3.325-6.532 3.325-5.858 0-9.381-4.355-9.381-9.976 0-5.62 3.76-9.975 9.184-9.975 3.562 0 5.462 1.662 6.452 2.89h.12V2.522c0-1.641.704-2.451 2.345-2.451h2.404v27.61c0 1.555-.882 2.316-2.293 2.316h-2.22v-2.85zM89.602 21.487h-.99c-2.612 0-7.124.198-7.124 2.93 0 1.742 1.78 2.494 3.325 2.494 3.246 0 4.79-1.703 4.79-4.355v-1.069zm.278 5.898h-.118c-1.348 2.138-3.564 3.088-6.098 3.088-3.522 0-6.927-1.94-6.927-5.7 0-6.176 7.205-6.61 11.955-6.61h1.188v-.515c0-2.336-1.82-3.564-4.355-3.564a7.514 7.514 0 0 0-3.598.921c-.543.297-1.526 1-2.745-.217l-1.218-1.218c2.098-2.137 5.067-3.048 8.076-3.048 8.114 0 8.114 5.858 8.114 8.55v8.857c0 1.499-.79 2.07-2.074 2.07h-2.2v-2.614zM100.999 1.695c1.74 0 3.088 1.227 3.088 2.85 0 1.622-1.348 2.85-3.088 2.85-1.743 0-3.01-1.346-3.01-2.85s1.267-2.85 3.01-2.85M98.663 10.997h4.75v16.512c0 1.871-.567 2.49-2.375 2.49h-2.375V10.996zM105.982 15.035v-4.038h3.92V5.495h2.48c1.65 0 2.27.906 2.27 2.175v3.327h5.224v2.064c0 1.174-.358 1.974-2.102 1.974h-3.122v8.312c0 1.901.553 3.088 2.651 3.088.832 0 2.573-.004 2.573 1.565v1.84c-.989.474-2.652.633-3.76.633-5.028 0-6.214-2.256-6.214-6.73v-8.708h-3.92zM35.237 31.155c-8 0-14.509-6.509-14.509-14.509s6.509-14.509 14.51-14.509c.352 0 .707.013 1.055.038a2.095 2.095 0 0 1 1.935 2.238 2.098 2.098 0 0 1-2.237 1.936c-.248-.018-.5-.027-.754-.027-5.693 0-10.324 4.631-10.324 10.324s4.631 10.325 10.324 10.325 10.325-4.632 10.325-10.325c0-.381-.021-.765-.062-1.14a2.095 2.095 0 0 1 2.08-2.321 2.09 2.09 0 0 1 2.08 1.864c.057.527.086 1.065.086 1.597 0 8-6.508 14.51-14.509 14.51"/>
        <path d="M47.595 10.84c-.238 0-.464-.074-.656-.216l-1.675-1.24-1.6 1.172a1.096 1.096 0 0 1-1.297.004 1.1 1.1 0 0 1-.403-1.233l.615-1.904L41.06 6.28a1.101 1.101 0 0 1 .663-1.984h1.913l.596-1.774a1.102 1.102 0 0 1 2.087-.01l.618 1.784h1.966a1.1 1.1 0 0 1 .66 1.985L47.98 7.469l.659 1.91c.158.46.001.961-.39 1.248-.191.14-.416.214-.653.214"/>
    </g>
</svg>
